<svg width="2500" height="2500" viewBox="0 0 2500 2500" fill="none" xmlns="http://www.w3.org/2000/svg">
  <rect width="2500" height="2500" fill="#F7F7F7"/>
  <path
    d="M1410.59 1072.05H1067.71V993.924L989.584 1072.05H941.841L1063.37 950.521C1066.68 947.232 1072.04 946.187 1076.39 946.181H1536.46L1410.59 1072.05Z"
    fill="#D9D9D9"/>
  <path
    d="M1432.29 1427.95V1089.41L1562.5 959.201V1414.93C1562.49 1419.24 1561.47 1424.66 1558.16 1427.95L1432.29 1549.48V1501.74L1510.42 1427.95H1432.29Z"
    fill="#D9D9D9"/>
  <path
    d="M933.16 1102.43C933.16 1097.77 937.144 1093.75 941.841 1093.75H1401.91C1406.61 1093.75 1410.59 1097.77 1410.59 1102.43V1545.14C1410.59 1549.8 1406.61 1553.82 1401.91 1553.82H941.841C937.144 1553.82 933.16 1549.8 933.16 1545.14V1102.43Z"
    fill="#D9D9D9"/>
</svg>
